#!OML:ASF \\Waltz\H\Terrain\Patient Classification 1\Animal1\Tuesday\Animal1.ASF
:FULLY-SPECIFIED
:DEGREES
1582
root 14.9387 13.4427 0.960774 -328.531 41.9865 3.79723
lowerback 42.5091 -0.613661 -0.363391
upperback 9.18055 -0.478586 -1.25032
thorax -9.91086 0.0405503 -0.992248
lowerneck -22.4705 -4.49875 -6.29804
upperneck -13.7873 -3.23975 17.943
head -0.0191476 -0.918133 6.50312
rclavicle -1.0138e-014 4.18442e-014
rhumerus 24.6725 10.4996 -46.7774
rradius 89.361
rwrist -10.3796
rhand -11.5163 7.38438
rfingers 7.12502
rthumb 14.5231 -22.0873
lclavicle -1.0138e-014 4.18442e-014
lhumerus 14.7977 -33.1027 69.5746
lradius 119.196
lwrist -17.6279
lhand 21.3539 55.4932
lfingers 7.12502
lthumb 45.7942 78.6729
rfemur -76.9895 5.08963 7.14599
rtibia 105.319
rfoot 5.03118 -7.32578
rtoes -3.2984
lfemur -92.1292 -12.4709 -8.71216
ltibia 70.1841
lfoot -13.6634 -17.4175
ltoes -1.57837
1583
root 14.9246 13.4538 0.970963 -328.028 41.8045 4.3193
lowerback 42.3936 -0.471691 -0.805848
upperback 9.12898 -0.514243 -1.40949
thorax -9.93195 0.0320035 -0.919802
lowerneck -22.5085 -4.38039 -6.02876
upperneck -13.669 -3.16287 17.6826
head -0.00729914 -0.887553 6.37571
rclavicle -3.97569e-016 8.79622e-015
rhumerus 23.8631 14.2303 -44.2249
rradius 90.845
rwrist -22.7948
rhand -10.1395 3.98789
rfingers 7.12502
rthumb 15.8493 -25.3834
lclavicle -3.97569e-016 8.79622e-015
lhumerus 14.8749 -30.548 70.3772
lradius 118.653
lwrist -18.7291
lhand 19.7614 55.4618
lfingers 7.12502
lthumb 44.3127 79.227
rfemur -77.119 5.04703 6.67469
rtibia 105.291
rfoot 5.17364 -7.1135
rtoes -2.80965
lfemur -92.0799 -12.5482 -8.9486
ltibia 69.8467
lfoot -13.6328 -17.4004
ltoes -1.60055
1584
root 14.9163 13.4779 0.98259 -327.877 41.9085 4.49126
lowerback 42.369 -0.487453 -0.839732
upperback 9.14073 -0.549569 -1.45602
thorax -9.91193 0.0187535 -0.937377
lowerneck -22.6161 -4.27457 -5.79764
upperneck -13.6733 -3.0688 17.4764
head -0.0207888 -0.845422 6.27656
rclavicle 4.25399e-014 -2.25621e-014
rhumerus 23.1355 17.1141 -42.2629
rradius 93.3133
rwrist -34.6521
rhand -6.08841 0.598198
rfingers 7.12502
rthumb 19.7474 -28.4187
lclavicle 4.25399e-014 -2.25621e-014
lhumerus 15.1242 -28.1363 71.1423
lradius 117.613
lwrist -20.5189
lhand 17.6293 56.6357
lfingers 7.12502
lthumb 42.3206 81.1174
rfemur -76.8578 5.12874 6.57208
rtibia 105.147
rfoot 4.75697 -7.44459
rtoes -0.17678
lfemur -91.8814 -12.6101 -9.03518
ltibia 69.5281
lfoot -13.5179 -17.5403
ltoes -1.61286
1585
root 14.9074 13.4997 0.994077 -328.018 42.1869 4.3475
lowerback 42.4413 -0.576226 -0.622391
upperback 9.17946 -0.548281 -1.35952
thorax -9.89114 0.0171089 -0.946583
lowerneck -22.6675 -4.25262 -5.85456
upperneck -13.8048 -2.99973 17.4602
head -0.0610304 -0.807623 6.28907
rclavicle -5.32743e-014 -5.86912e-014
rhumerus 22.3956 19.3965 -40.8493
rradius 95.9731
rwrist -42.1227
rhand -1.25968 -2.90987
rfingers 7.12502
rthumb 24.3833 -31.3785
lclavicle -5.32743e-014 -5.86912e-014
lhumerus 15.3816 -26.068 71.8623
lradius 115.894
lwrist -23.3872
lhand 15.7479 58.3022
lfingers 7.12502
lthumb 40.5551 83.3584
rfemur -76.6424 5.34189 6.90409
rtibia 105.001
rfoot 4.91872 -7.73074
rtoes -1.04332
lfemur -91.6704 -12.662 -8.85289
ltibia 69.2587
lfoot -13.4046 -17.6513
ltoes -1.33355
1586
root 14.8896 13.5207 1.01117 -328.261 41.9234 4.33651
lowerback 42.8826 -0.300931 -1.02717
upperback 9.10397 -0.388822 -1.32619
thorax -10.099 0.0937126 -0.772052
lowerneck -22.4317 -4.23347 -5.92121
upperneck -13.9765 -2.93714 17.5228
head -0.1468 -0.789385 6.32759
rclavicle -4.57205e-015 4.90998e-014
rhumerus 21.5814 21.2946 -40.0227
rradius 98.5295
rwrist -44.8059
rhand -0.171842 -1.88262
rfingers 7.12502
rthumb 25.4258 -30.2069
lclavicle -4.57205e-015 4.90998e-014
lhumerus 15.4814 -24.3411 72.5022
lradius 113.498
lwrist -27.4027
lhand 16.5921 59.2177
lfingers 7.12502
lthumb 41.3481 84.0224
rfemur -76.5075 5.87848 6.97982
rtibia 104.836
rfoot 5.56297 -7.58302
rtoes -7.06816
lfemur -91.1555 -12.4956 -8.90232
ltibia 69.0445
lfoot -13.4718 -17.5089
ltoes -0.934448
1587
root 14.8788 13.5193 1.01669 -327.47 41.9899 4.90825
lowerback 42.4621 -0.358266 -1.16336
upperback 9.029 -0.537759 -1.49703
thorax -10.0618 0.0294695 -0.820431
lowerneck -22.1052 -4.20805 -5.59727
upperneck -14.2312 -2.94113 17.6324
head -0.268289 -0.831033 6.30943
rclavicle -2.82274e-014 8.85586e-014
rhumerus 20.6022 22.4095 -40.1185
rradius 100.915
rwrist -45.0197
rhand -1.31076 -1.40079
rfingers 7.12502
rthumb 24.3343 -29.876
lclavicle -2.82274e-014 8.85586e-014
lhumerus 15.5585 -23.2581 72.5692
lradius 111.047
lwrist -31.9772
lhand 20.5997 59.0056
lfingers 7.12502
lthumb 45.0933 82.4683
rfemur -77.1187 5.44889 6.70199
rtibia 104.895
rfoot 5.76335 -7.40919
rtoes -7.9301
lfemur -91.5172 -12.6242 -9.17534
ltibia 68.7964
lfoot -13.2814 -17.6403
ltoes -0.5061
